<svg width="20" height="28" viewBox="0 0 20 28" fill="none" xmlns="http://www.w3.org/2000/svg">
<path d="M17.8451 8.51172C18.4961 7.86068 18.4961 6.80339 17.8451 6.15234C17.194 5.5013 16.1367 5.5013 15.4857 6.15234L10.0013 11.6419L4.51172 6.15755C3.86068 5.50651 2.80339 5.50651 2.15234 6.15755C1.5013 6.80859 1.5013 7.86589 2.15234 8.51693L7.64193 14.0013L2.15755 19.4909C1.50651 20.1419 1.50651 21.1992 2.15755 21.8503C2.80859 22.5013 3.86589 22.5013 4.51693 21.8503L10.0013 16.3607L15.4909 21.8451C16.1419 22.4961 17.1992 22.4961 17.8503 21.8451C18.5013 21.194 18.5013 20.1367 17.8503 19.4857L12.3607 14.0013L17.8451 8.51172Z" fill="#FF0000"/>
</svg>
