<svg width="24" height="24" viewBox="0 0 24 24" fill="none" xmlns="http://www.w3.org/2000/svg">
<g clip-path="url(#clip0_615_1039)">
<path d="M21.6852 1.47612C20.7014 0.492334 19.1111 0.492334 18.1273 1.47612L16.7752 2.82378L21.173 7.22163L22.5252 5.86948C23.509 4.88569 23.509 3.29546 22.5252 2.31167L21.6852 1.47612ZM8.24453 11.3589C7.97051 11.633 7.75937 11.9699 7.63809 12.3427L6.3084 16.3318C6.17813 16.7181 6.28145 17.1449 6.56895 17.4369C6.85645 17.7289 7.2832 17.8277 7.67402 17.6974L11.6631 16.3677C12.0314 16.2464 12.3684 16.0353 12.6469 15.7613L20.1623 8.24136L15.76 3.83901L8.24453 11.3589ZM4.8125 3.37632C2.43164 3.37632 0.5 5.30796 0.5 7.68882V19.1888C0.5 21.5697 2.43164 23.5013 4.8125 23.5013H16.3125C18.6934 23.5013 20.625 21.5697 20.625 19.1888V14.8763C20.625 14.0812 19.9826 13.4388 19.1875 13.4388C18.3924 13.4388 17.75 14.0812 17.75 14.8763V19.1888C17.75 19.9839 17.1076 20.6263 16.3125 20.6263H4.8125C4.01738 20.6263 3.375 19.9839 3.375 19.1888V7.68882C3.375 6.8937 4.01738 6.25132 4.8125 6.25132H9.125C9.92012 6.25132 10.5625 5.60894 10.5625 4.81382C10.5625 4.0187 9.92012 3.37632 9.125 3.37632H4.8125Z" fill="#032FF0"/>
</g>
<defs>
<clipPath id="clip0_615_1039">
<rect width="23" height="23" fill="white" transform="translate(0.5 0.5)"/>
</clipPath>
</defs>
</svg>
